<?xml version="1.0" encoding="UTF-8"?>
<svg id="Layer_1" data-name="Layer 1" xmlns="http://www.w3.org/2000/svg" viewBox="0 0 1400 1400">
  <defs>
    <style>
      .cls-1 {
        fill: #ffffff;
      }
    </style>
  </defs>
  <path class="cls-1" d="M1400,600c-101.51,0-197.13-25.21-280.94-69.71,29.23-90.28,80.36-174.93,153.26-245.56l-69.58-71.82-69.58-71.82c-75.25,72.91-164.68,122.15-259.08,147.9-47.2-85.72-74.06-184.21-74.06-288.99h-200c0,101.51-25.21,197.13-69.71,280.94-90.28-29.23-174.93-80.36-245.56-153.26l-143.64,139.17c72.91,75.25,122.15,164.68,147.9,259.08-85.72,47.2-184.21,74.06-288.99,74.06v200c101.51,0,197.13,25.21,280.94,69.71-29.23,90.28-80.36,174.93-153.26,245.56l69.58,71.82,69.58,71.82c75.25-72.91,164.68-122.15,259.08-147.9,47.2,85.72,74.06,184.21,74.06,288.99h200c0-101.51,25.21-197.13,69.71-280.94,90.28,29.23,174.93,80.36,245.56,153.26l143.64-139.17c-72.91-75.25-122.15-164.68-147.9-259.08,85.72-47.2,184.21-74.06,288.99-74.06v-200ZM700,879.46c-99.12,0-179.46-80.35-179.46-179.46s80.35-179.46,179.46-179.46,179.46,80.35,179.46,179.46-80.35,179.46-179.46,179.46Z"/>
</svg>
